<svg xmlns="http://www.w3.org/2000/svg" xmlns:xlink="http://www.w3.org/1999/xlink" width="500" zoomAndPan="magnify" viewBox="0 0 375 374.999991" height="500" preserveAspectRatio="xMidYMid meet" version="1.0"><defs><clipPath id="a87e6bfb33"><path d="M 0 142.5 L 90 142.5 L 90 232.5 L 0 232.5 Z M 0 142.5 " clip-rule="nonzero"/></clipPath><clipPath id="d2461572ad"><path d="M 142.5 0 L 232.5 0 L 232.5 90 L 142.5 90 Z M 142.5 0 " clip-rule="nonzero"/></clipPath><clipPath id="c4f832cc95"><path d="M 142.5 142.5 L 232.5 142.5 L 232.5 232.5 L 142.5 232.5 Z M 142.5 142.5 " clip-rule="nonzero"/></clipPath><clipPath id="60d6e3c7d7"><path d="M 142.5 285 L 232.5 285 L 232.5 375 L 142.5 375 Z M 142.5 285 " clip-rule="nonzero"/></clipPath><clipPath id="bf1a0c9550"><path d="M 285 142.5 L 375 142.5 L 375 232.5 L 285 232.5 Z M 285 142.5 " clip-rule="nonzero"/></clipPath></defs><path fill="#ffffff" d="M 90 45 C 90 46.472656 89.925781 47.941406 89.78125 49.410156 C 89.636719 50.875 89.421875 52.332031 89.132812 53.777344 C 88.847656 55.222656 88.488281 56.652344 88.0625 58.0625 C 87.632812 59.472656 87.136719 60.859375 86.574219 62.21875 C 86.007812 63.582031 85.378906 64.910156 84.683594 66.210938 C 83.992188 67.511719 83.234375 68.773438 82.414062 70 C 81.597656 71.226562 80.71875 72.40625 79.785156 73.546875 C 78.847656 74.6875 77.859375 75.777344 76.820312 76.820312 C 75.777344 77.859375 74.6875 78.847656 73.546875 79.785156 C 72.40625 80.71875 71.226562 81.597656 70 82.414062 C 68.773438 83.234375 67.511719 83.992188 66.210938 84.683594 C 64.910156 85.378906 63.582031 86.007812 62.21875 86.574219 C 60.859375 87.136719 59.472656 87.632812 58.0625 88.0625 C 56.652344 88.488281 55.222656 88.847656 53.777344 89.132812 C 52.332031 89.421875 50.875 89.636719 49.410156 89.78125 C 47.941406 89.925781 46.472656 90 45 90 C 43.527344 90 42.054688 89.925781 40.589844 89.78125 C 39.121094 89.636719 37.664062 89.421875 36.21875 89.132812 C 34.773438 88.847656 33.347656 88.488281 31.9375 88.0625 C 30.527344 87.632812 29.140625 87.136719 27.777344 86.574219 C 26.417969 86.007812 25.085938 85.378906 23.785156 84.683594 C 22.488281 83.992188 21.222656 83.234375 20 82.414062 C 18.773438 81.597656 17.589844 80.71875 16.453125 79.785156 C 15.3125 78.847656 14.222656 77.859375 13.179688 76.820312 C 12.136719 75.777344 11.148438 74.6875 10.214844 73.546875 C 9.28125 72.40625 8.402344 71.226562 7.582031 70 C 6.765625 68.773438 6.007812 67.511719 5.3125 66.210938 C 4.617188 64.910156 3.988281 63.582031 3.425781 62.21875 C 2.863281 60.859375 2.367188 59.472656 1.9375 58.0625 C 1.511719 56.652344 1.152344 55.222656 0.863281 53.777344 C 0.578125 52.332031 0.359375 50.875 0.214844 49.410156 C 0.0703125 47.941406 0 46.472656 0 45 C 0 43.527344 0.0703125 42.054688 0.214844 40.589844 C 0.359375 39.121094 0.578125 37.664062 0.863281 36.21875 C 1.152344 34.773438 1.511719 33.347656 1.9375 31.9375 C 2.367188 30.527344 2.863281 29.140625 3.425781 27.777344 C 3.988281 26.417969 4.617188 25.085938 5.3125 23.785156 C 6.007812 22.488281 6.765625 21.222656 7.582031 20 C 8.402344 18.773438 9.28125 17.589844 10.214844 16.453125 C 11.148438 15.3125 12.136719 14.222656 13.179688 13.179688 C 14.222656 12.136719 15.3125 11.148438 16.453125 10.214844 C 17.589844 9.28125 18.773438 8.402344 20 7.582031 C 21.222656 6.765625 22.488281 6.007812 23.785156 5.3125 C 25.085938 4.617188 26.417969 3.988281 27.777344 3.425781 C 29.140625 2.863281 30.527344 2.367188 31.9375 1.9375 C 33.347656 1.511719 34.773438 1.152344 36.21875 0.863281 C 37.664062 0.578125 39.121094 0.359375 40.589844 0.214844 C 42.054688 0.0703125 43.527344 0 45 0 C 46.472656 0 47.941406 0.0703125 49.410156 0.214844 C 50.875 0.359375 52.332031 0.578125 53.777344 0.863281 C 55.222656 1.152344 56.652344 1.511719 58.0625 1.9375 C 59.472656 2.367188 60.859375 2.863281 62.21875 3.425781 C 63.582031 3.988281 64.910156 4.617188 66.210938 5.3125 C 67.511719 6.007812 68.773438 6.765625 70 7.582031 C 71.226562 8.402344 72.40625 9.28125 73.546875 10.214844 C 74.6875 11.148438 75.777344 12.136719 76.820312 13.179688 C 77.859375 14.222656 78.847656 15.3125 79.785156 16.453125 C 80.71875 17.589844 81.597656 18.773438 82.414062 20 C 83.234375 21.222656 83.992188 22.488281 84.683594 23.785156 C 85.378906 25.085938 86.007812 26.417969 86.574219 27.777344 C 87.136719 29.140625 87.632812 30.527344 88.0625 31.9375 C 88.488281 33.347656 88.847656 34.773438 89.132812 36.21875 C 89.421875 37.664062 89.636719 39.121094 89.78125 40.589844 C 89.925781 42.054688 90 43.527344 90 45 Z M 90 45 " fill-opacity="1" fill-rule="nonzero"/><g clip-path="url(#a87e6bfb33)"><path fill="#ffffff" d="M 90 187.5 C 90 188.972656 89.925781 190.441406 89.78125 191.910156 C 89.636719 193.375 89.421875 194.832031 89.132812 196.277344 C 88.847656 197.722656 88.488281 199.152344 88.0625 200.5625 C 87.632812 201.972656 87.136719 203.359375 86.574219 204.71875 C 86.007812 206.082031 85.378906 207.410156 84.683594 208.710938 C 83.992188 210.011719 83.234375 211.273438 82.414062 212.5 C 81.597656 213.726562 80.71875 214.90625 79.785156 216.046875 C 78.847656 217.1875 77.859375 218.277344 76.820312 219.320312 C 75.777344 220.359375 74.6875 221.347656 73.546875 222.285156 C 72.40625 223.21875 71.226562 224.097656 70 224.914062 C 68.773438 225.734375 67.511719 226.492188 66.210938 227.183594 C 64.910156 227.878906 63.582031 228.507812 62.21875 229.074219 C 60.859375 229.636719 59.472656 230.132812 58.0625 230.5625 C 56.652344 230.988281 55.222656 231.347656 53.777344 231.632812 C 52.332031 231.921875 50.875 232.136719 49.410156 232.28125 C 47.941406 232.425781 46.472656 232.5 45 232.5 C 43.527344 232.5 42.054688 232.425781 40.589844 232.28125 C 39.121094 232.136719 37.664062 231.921875 36.21875 231.632812 C 34.773438 231.347656 33.347656 230.988281 31.9375 230.5625 C 30.527344 230.132812 29.140625 229.636719 27.777344 229.074219 C 26.417969 228.507812 25.085938 227.878906 23.785156 227.183594 C 22.488281 226.492188 21.222656 225.734375 20 224.914062 C 18.773438 224.097656 17.589844 223.21875 16.453125 222.285156 C 15.3125 221.347656 14.222656 220.359375 13.179688 219.320312 C 12.136719 218.277344 11.148438 217.1875 10.214844 216.046875 C 9.28125 214.90625 8.402344 213.726562 7.582031 212.5 C 6.765625 211.273438 6.007812 210.011719 5.3125 208.710938 C 4.617188 207.410156 3.988281 206.082031 3.425781 204.71875 C 2.863281 203.359375 2.367188 201.972656 1.9375 200.5625 C 1.511719 199.152344 1.152344 197.722656 0.863281 196.277344 C 0.578125 194.832031 0.359375 193.375 0.214844 191.910156 C 0.0703125 190.441406 0 188.972656 0 187.5 C 0 186.027344 0.0703125 184.554688 0.214844 183.089844 C 0.359375 181.621094 0.578125 180.164062 0.863281 178.71875 C 1.152344 177.273438 1.511719 175.847656 1.9375 174.4375 C 2.367188 173.027344 2.863281 171.640625 3.425781 170.277344 C 3.988281 168.917969 4.617188 167.585938 5.3125 166.285156 C 6.007812 164.988281 6.765625 163.722656 7.582031 162.5 C 8.402344 161.273438 9.28125 160.089844 10.214844 158.953125 C 11.148438 157.8125 12.136719 156.722656 13.179688 155.679688 C 14.222656 154.636719 15.3125 153.648438 16.453125 152.714844 C 17.589844 151.78125 18.773438 150.902344 20 150.082031 C 21.222656 149.265625 22.488281 148.507812 23.785156 147.8125 C 25.085938 147.117188 26.417969 146.488281 27.777344 145.925781 C 29.140625 145.363281 30.527344 144.867188 31.9375 144.4375 C 33.347656 144.011719 34.773438 143.652344 36.21875 143.363281 C 37.664062 143.078125 39.121094 142.859375 40.589844 142.714844 C 42.054688 142.570312 43.527344 142.5 45 142.5 C 46.472656 142.5 47.941406 142.570312 49.410156 142.714844 C 50.875 142.859375 52.332031 143.078125 53.777344 143.363281 C 55.222656 143.652344 56.652344 144.011719 58.0625 144.4375 C 59.472656 144.867188 60.859375 145.363281 62.21875 145.925781 C 63.582031 146.488281 64.910156 147.117188 66.210938 147.8125 C 67.511719 148.507812 68.773438 149.265625 70 150.082031 C 71.226562 150.902344 72.40625 151.78125 73.546875 152.714844 C 74.6875 153.648438 75.777344 154.636719 76.820312 155.679688 C 77.859375 156.722656 78.847656 157.8125 79.785156 158.953125 C 80.71875 160.089844 81.597656 161.273438 82.414062 162.5 C 83.234375 163.722656 83.992188 164.988281 84.683594 166.285156 C 85.378906 167.585938 86.007812 168.917969 86.574219 170.277344 C 87.136719 171.640625 87.632812 173.027344 88.0625 174.4375 C 88.488281 175.847656 88.847656 177.273438 89.132812 178.71875 C 89.421875 180.164062 89.636719 181.621094 89.78125 183.089844 C 89.925781 184.554688 90 186.027344 90 187.5 Z M 90 187.5 " fill-opacity="1" fill-rule="nonzero"/></g><path fill="#ffffff" d="M 90 330 C 90 331.472656 89.925781 332.941406 89.78125 334.410156 C 89.636719 335.875 89.421875 337.332031 89.132812 338.777344 C 88.847656 340.222656 88.488281 341.652344 88.0625 343.0625 C 87.632812 344.472656 87.136719 345.859375 86.574219 347.21875 C 86.007812 348.582031 85.378906 349.910156 84.683594 351.210938 C 83.992188 352.511719 83.234375 353.773438 82.414062 355 C 81.597656 356.226562 80.71875 357.40625 79.785156 358.546875 C 78.847656 359.6875 77.859375 360.777344 76.820312 361.820312 C 75.777344 362.859375 74.6875 363.847656 73.546875 364.785156 C 72.40625 365.71875 71.226562 366.597656 70 367.414062 C 68.773438 368.234375 67.511719 368.992188 66.210938 369.683594 C 64.910156 370.378906 63.582031 371.007812 62.21875 371.574219 C 60.859375 372.136719 59.472656 372.632812 58.0625 373.0625 C 56.652344 373.488281 55.222656 373.847656 53.777344 374.132812 C 52.332031 374.421875 50.875 374.636719 49.410156 374.78125 C 47.941406 374.925781 46.472656 375 45 375 C 43.527344 375 42.054688 374.925781 40.589844 374.78125 C 39.121094 374.636719 37.664062 374.421875 36.21875 374.132812 C 34.773438 373.847656 33.347656 373.488281 31.9375 373.0625 C 30.527344 372.632812 29.140625 372.136719 27.777344 371.574219 C 26.417969 371.007812 25.085938 370.378906 23.785156 369.683594 C 22.488281 368.992188 21.222656 368.234375 20 367.414062 C 18.773438 366.597656 17.589844 365.71875 16.453125 364.785156 C 15.3125 363.847656 14.222656 362.859375 13.179688 361.820312 C 12.136719 360.777344 11.148438 359.6875 10.214844 358.546875 C 9.28125 357.40625 8.402344 356.226562 7.582031 355 C 6.765625 353.773438 6.007812 352.511719 5.3125 351.210938 C 4.617188 349.910156 3.988281 348.582031 3.425781 347.21875 C 2.863281 345.859375 2.367188 344.472656 1.9375 343.0625 C 1.511719 341.652344 1.152344 340.222656 0.863281 338.777344 C 0.578125 337.332031 0.359375 335.875 0.214844 334.410156 C 0.0703125 332.941406 0 331.472656 0 330 C 0 328.527344 0.0703125 327.054688 0.214844 325.589844 C 0.359375 324.121094 0.578125 322.664062 0.863281 321.21875 C 1.152344 319.773438 1.511719 318.347656 1.9375 316.9375 C 2.367188 315.527344 2.863281 314.140625 3.425781 312.777344 C 3.988281 311.417969 4.617188 310.085938 5.3125 308.785156 C 6.007812 307.488281 6.765625 306.222656 7.582031 305 C 8.402344 303.773438 9.28125 302.589844 10.214844 301.453125 C 11.148438 300.3125 12.136719 299.222656 13.179688 298.179688 C 14.222656 297.136719 15.3125 296.148438 16.453125 295.214844 C 17.589844 294.28125 18.773438 293.402344 20 292.582031 C 21.222656 291.765625 22.488281 291.007812 23.785156 290.3125 C 25.085938 289.617188 26.417969 288.988281 27.777344 288.425781 C 29.140625 287.863281 30.527344 287.367188 31.9375 286.9375 C 33.347656 286.511719 34.773438 286.152344 36.21875 285.863281 C 37.664062 285.578125 39.121094 285.359375 40.589844 285.214844 C 42.054688 285.070312 43.527344 285 45 285 C 46.472656 285 47.941406 285.070312 49.410156 285.214844 C 50.875 285.359375 52.332031 285.578125 53.777344 285.863281 C 55.222656 286.152344 56.652344 286.511719 58.0625 286.9375 C 59.472656 287.367188 60.859375 287.863281 62.21875 288.425781 C 63.582031 288.988281 64.910156 289.617188 66.210938 290.3125 C 67.511719 291.007812 68.773438 291.765625 70 292.582031 C 71.226562 293.402344 72.40625 294.28125 73.546875 295.214844 C 74.6875 296.148438 75.777344 297.136719 76.820312 298.179688 C 77.859375 299.222656 78.847656 300.3125 79.785156 301.453125 C 80.71875 302.589844 81.597656 303.773438 82.414062 305 C 83.234375 306.222656 83.992188 307.488281 84.683594 308.785156 C 85.378906 310.085938 86.007812 311.417969 86.574219 312.777344 C 87.136719 314.140625 87.632812 315.527344 88.0625 316.9375 C 88.488281 318.347656 88.847656 319.773438 89.132812 321.21875 C 89.421875 322.664062 89.636719 324.121094 89.78125 325.589844 C 89.925781 327.054688 90 328.527344 90 330 Z M 90 330 " fill-opacity="1" fill-rule="nonzero"/><g clip-path="url(#d2461572ad)"><path fill="#ffffff" d="M 232.5 45 C 232.5 46.472656 232.425781 47.941406 232.28125 49.410156 C 232.136719 50.875 231.921875 52.332031 231.632812 53.777344 C 231.347656 55.222656 230.988281 56.652344 230.5625 58.0625 C 230.132812 59.472656 229.636719 60.859375 229.074219 62.21875 C 228.507812 63.582031 227.878906 64.910156 227.183594 66.210938 C 226.492188 67.511719 225.734375 68.773438 224.914062 70 C 224.097656 71.226562 223.21875 72.40625 222.285156 73.546875 C 221.347656 74.6875 220.359375 75.777344 219.320312 76.820312 C 218.277344 77.859375 217.1875 78.847656 216.046875 79.785156 C 214.90625 80.71875 213.726562 81.597656 212.5 82.414062 C 211.273438 83.234375 210.011719 83.992188 208.710938 84.683594 C 207.410156 85.378906 206.082031 86.007812 204.71875 86.574219 C 203.359375 87.136719 201.972656 87.632812 200.5625 88.0625 C 199.152344 88.488281 197.722656 88.847656 196.277344 89.132812 C 194.832031 89.421875 193.375 89.636719 191.910156 89.78125 C 190.441406 89.925781 188.972656 90 187.5 90 C 186.027344 90 184.554688 89.925781 183.089844 89.78125 C 181.621094 89.636719 180.164062 89.421875 178.71875 89.132812 C 177.273438 88.847656 175.847656 88.488281 174.4375 88.0625 C 173.027344 87.632812 171.640625 87.136719 170.277344 86.574219 C 168.917969 86.007812 167.585938 85.378906 166.285156 84.683594 C 164.988281 83.992188 163.722656 83.234375 162.5 82.414062 C 161.273438 81.597656 160.089844 80.71875 158.953125 79.785156 C 157.8125 78.847656 156.722656 77.859375 155.679688 76.820312 C 154.636719 75.777344 153.648438 74.6875 152.714844 73.546875 C 151.78125 72.40625 150.902344 71.226562 150.082031 70 C 149.265625 68.773438 148.507812 67.511719 147.8125 66.210938 C 147.117188 64.910156 146.488281 63.582031 145.925781 62.21875 C 145.363281 60.859375 144.867188 59.472656 144.4375 58.0625 C 144.011719 56.652344 143.652344 55.222656 143.363281 53.777344 C 143.078125 52.332031 142.859375 50.875 142.714844 49.410156 C 142.570312 47.941406 142.5 46.472656 142.5 45 C 142.5 43.527344 142.570312 42.054688 142.714844 40.589844 C 142.859375 39.121094 143.078125 37.664062 143.363281 36.21875 C 143.652344 34.773438 144.011719 33.347656 144.4375 31.9375 C 144.867188 30.527344 145.363281 29.140625 145.925781 27.777344 C 146.488281 26.417969 147.117188 25.085938 147.8125 23.785156 C 148.507812 22.488281 149.265625 21.222656 150.082031 20 C 150.902344 18.773438 151.78125 17.589844 152.714844 16.453125 C 153.648438 15.3125 154.636719 14.222656 155.679688 13.179688 C 156.722656 12.136719 157.8125 11.148438 158.953125 10.214844 C 160.089844 9.28125 161.273438 8.402344 162.5 7.582031 C 163.722656 6.765625 164.988281 6.007812 166.285156 5.3125 C 167.585938 4.617188 168.917969 3.988281 170.277344 3.425781 C 171.640625 2.863281 173.027344 2.367188 174.4375 1.9375 C 175.847656 1.511719 177.273438 1.152344 178.71875 0.863281 C 180.164062 0.578125 181.621094 0.359375 183.089844 0.214844 C 184.554688 0.0703125 186.027344 0 187.5 0 C 188.972656 0 190.441406 0.0703125 191.910156 0.214844 C 193.375 0.359375 194.832031 0.578125 196.277344 0.863281 C 197.722656 1.152344 199.152344 1.511719 200.5625 1.9375 C 201.972656 2.367188 203.359375 2.863281 204.71875 3.425781 C 206.082031 3.988281 207.410156 4.617188 208.710938 5.3125 C 210.011719 6.007812 211.273438 6.765625 212.5 7.582031 C 213.726562 8.402344 214.90625 9.28125 216.046875 10.214844 C 217.1875 11.148438 218.277344 12.136719 219.320312 13.179688 C 220.359375 14.222656 221.347656 15.3125 222.285156 16.453125 C 223.21875 17.589844 224.097656 18.773438 224.914062 20 C 225.734375 21.222656 226.492188 22.488281 227.183594 23.785156 C 227.878906 25.085938 228.507812 26.417969 229.074219 27.777344 C 229.636719 29.140625 230.132812 30.527344 230.5625 31.9375 C 230.988281 33.347656 231.347656 34.773438 231.632812 36.21875 C 231.921875 37.664062 232.136719 39.121094 232.28125 40.589844 C 232.425781 42.054688 232.5 43.527344 232.5 45 Z M 232.5 45 " fill-opacity="1" fill-rule="nonzero"/></g><g clip-path="url(#c4f832cc95)"><path fill="#ffffff" d="M 232.5 187.5 C 232.5 188.972656 232.425781 190.441406 232.28125 191.910156 C 232.136719 193.375 231.921875 194.832031 231.632812 196.277344 C 231.347656 197.722656 230.988281 199.152344 230.5625 200.5625 C 230.132812 201.972656 229.636719 203.359375 229.074219 204.71875 C 228.507812 206.082031 227.878906 207.410156 227.183594 208.710938 C 226.492188 210.011719 225.734375 211.273438 224.914062 212.5 C 224.097656 213.726562 223.21875 214.90625 222.285156 216.046875 C 221.347656 217.1875 220.359375 218.277344 219.320312 219.320312 C 218.277344 220.359375 217.1875 221.347656 216.046875 222.285156 C 214.90625 223.21875 213.726562 224.097656 212.5 224.914062 C 211.273438 225.734375 210.011719 226.492188 208.710938 227.183594 C 207.410156 227.878906 206.082031 228.507812 204.71875 229.074219 C 203.359375 229.636719 201.972656 230.132812 200.5625 230.5625 C 199.152344 230.988281 197.722656 231.347656 196.277344 231.632812 C 194.832031 231.921875 193.375 232.136719 191.910156 232.28125 C 190.441406 232.425781 188.972656 232.5 187.5 232.5 C 186.027344 232.5 184.554688 232.425781 183.089844 232.28125 C 181.621094 232.136719 180.164062 231.921875 178.71875 231.632812 C 177.273438 231.347656 175.847656 230.988281 174.4375 230.5625 C 173.027344 230.132812 171.640625 229.636719 170.277344 229.074219 C 168.917969 228.507812 167.585938 227.878906 166.285156 227.183594 C 164.988281 226.492188 163.722656 225.734375 162.5 224.914062 C 161.273438 224.097656 160.089844 223.21875 158.953125 222.285156 C 157.8125 221.347656 156.722656 220.359375 155.679688 219.320312 C 154.636719 218.277344 153.648438 217.1875 152.714844 216.046875 C 151.78125 214.90625 150.902344 213.726562 150.082031 212.5 C 149.265625 211.273438 148.507812 210.011719 147.8125 208.710938 C 147.117188 207.410156 146.488281 206.082031 145.925781 204.71875 C 145.363281 203.359375 144.867188 201.972656 144.4375 200.5625 C 144.011719 199.152344 143.652344 197.722656 143.363281 196.277344 C 143.078125 194.832031 142.859375 193.375 142.714844 191.910156 C 142.570312 190.441406 142.5 188.972656 142.5 187.5 C 142.5 186.027344 142.570312 184.554688 142.714844 183.089844 C 142.859375 181.621094 143.078125 180.164062 143.363281 178.71875 C 143.652344 177.273438 144.011719 175.847656 144.4375 174.4375 C 144.867188 173.027344 145.363281 171.640625 145.925781 170.277344 C 146.488281 168.917969 147.117188 167.585938 147.8125 166.285156 C 148.507812 164.988281 149.265625 163.722656 150.082031 162.5 C 150.902344 161.273438 151.78125 160.089844 152.714844 158.953125 C 153.648438 157.8125 154.636719 156.722656 155.679688 155.679688 C 156.722656 154.636719 157.8125 153.648438 158.953125 152.714844 C 160.089844 151.78125 161.273438 150.902344 162.5 150.082031 C 163.722656 149.265625 164.988281 148.507812 166.285156 147.8125 C 167.585938 147.117188 168.917969 146.488281 170.277344 145.925781 C 171.640625 145.363281 173.027344 144.867188 174.4375 144.4375 C 175.847656 144.011719 177.273438 143.652344 178.71875 143.363281 C 180.164062 143.078125 181.621094 142.859375 183.089844 142.714844 C 184.554688 142.570312 186.027344 142.5 187.5 142.5 C 188.972656 142.5 190.441406 142.570312 191.910156 142.714844 C 193.375 142.859375 194.832031 143.078125 196.277344 143.363281 C 197.722656 143.652344 199.152344 144.011719 200.5625 144.4375 C 201.972656 144.867188 203.359375 145.363281 204.71875 145.925781 C 206.082031 146.488281 207.410156 147.117188 208.710938 147.8125 C 210.011719 148.507812 211.273438 149.265625 212.5 150.082031 C 213.726562 150.902344 214.90625 151.78125 216.046875 152.714844 C 217.1875 153.648438 218.277344 154.636719 219.320312 155.679688 C 220.359375 156.722656 221.347656 157.8125 222.285156 158.953125 C 223.21875 160.089844 224.097656 161.273438 224.914062 162.5 C 225.734375 163.722656 226.492188 164.988281 227.183594 166.285156 C 227.878906 167.585938 228.507812 168.917969 229.074219 170.277344 C 229.636719 171.640625 230.132812 173.027344 230.5625 174.4375 C 230.988281 175.847656 231.347656 177.273438 231.632812 178.71875 C 231.921875 180.164062 232.136719 181.621094 232.28125 183.089844 C 232.425781 184.554688 232.5 186.027344 232.5 187.5 Z M 232.5 187.5 " fill-opacity="1" fill-rule="nonzero"/></g><g clip-path="url(#60d6e3c7d7)"><path fill="#ffffff" d="M 232.5 330 C 232.5 331.472656 232.425781 332.941406 232.28125 334.410156 C 232.136719 335.875 231.921875 337.332031 231.632812 338.777344 C 231.347656 340.222656 230.988281 341.652344 230.5625 343.0625 C 230.132812 344.472656 229.636719 345.859375 229.074219 347.21875 C 228.507812 348.582031 227.878906 349.910156 227.183594 351.210938 C 226.492188 352.511719 225.734375 353.773438 224.914062 355 C 224.097656 356.226562 223.21875 357.40625 222.285156 358.546875 C 221.347656 359.6875 220.359375 360.777344 219.320312 361.820312 C 218.277344 362.859375 217.1875 363.847656 216.046875 364.785156 C 214.90625 365.71875 213.726562 366.597656 212.5 367.414062 C 211.273438 368.234375 210.011719 368.992188 208.710938 369.683594 C 207.410156 370.378906 206.082031 371.007812 204.71875 371.574219 C 203.359375 372.136719 201.972656 372.632812 200.5625 373.0625 C 199.152344 373.488281 197.722656 373.847656 196.277344 374.132812 C 194.832031 374.421875 193.375 374.636719 191.910156 374.78125 C 190.441406 374.925781 188.972656 375 187.5 375 C 186.027344 375 184.554688 374.925781 183.089844 374.78125 C 181.621094 374.636719 180.164062 374.421875 178.71875 374.132812 C 177.273438 373.847656 175.847656 373.488281 174.4375 373.0625 C 173.027344 372.632812 171.640625 372.136719 170.277344 371.574219 C 168.917969 371.007812 167.585938 370.378906 166.285156 369.683594 C 164.988281 368.992188 163.722656 368.234375 162.5 367.414062 C 161.273438 366.597656 160.089844 365.71875 158.953125 364.785156 C 157.8125 363.847656 156.722656 362.859375 155.679688 361.820312 C 154.636719 360.777344 153.648438 359.6875 152.714844 358.546875 C 151.78125 357.40625 150.902344 356.226562 150.082031 355 C 149.265625 353.773438 148.507812 352.511719 147.8125 351.210938 C 147.117188 349.910156 146.488281 348.582031 145.925781 347.21875 C 145.363281 345.859375 144.867188 344.472656 144.4375 343.0625 C 144.011719 341.652344 143.652344 340.222656 143.363281 338.777344 C 143.078125 337.332031 142.859375 335.875 142.714844 334.410156 C 142.570312 332.941406 142.5 331.472656 142.5 330 C 142.5 328.527344 142.570312 327.054688 142.714844 325.589844 C 142.859375 324.121094 143.078125 322.664062 143.363281 321.21875 C 143.652344 319.773438 144.011719 318.347656 144.4375 316.9375 C 144.867188 315.527344 145.363281 314.140625 145.925781 312.777344 C 146.488281 311.417969 147.117188 310.085938 147.8125 308.785156 C 148.507812 307.488281 149.265625 306.222656 150.082031 305 C 150.902344 303.773438 151.78125 302.589844 152.714844 301.453125 C 153.648438 300.3125 154.636719 299.222656 155.679688 298.179688 C 156.722656 297.136719 157.8125 296.148438 158.953125 295.214844 C 160.089844 294.28125 161.273438 293.402344 162.5 292.582031 C 163.722656 291.765625 164.988281 291.007812 166.285156 290.3125 C 167.585938 289.617188 168.917969 288.988281 170.277344 288.425781 C 171.640625 287.863281 173.027344 287.367188 174.4375 286.9375 C 175.847656 286.511719 177.273438 286.152344 178.71875 285.863281 C 180.164062 285.578125 181.621094 285.359375 183.089844 285.214844 C 184.554688 285.070312 186.027344 285 187.5 285 C 188.972656 285 190.441406 285.070312 191.910156 285.214844 C 193.375 285.359375 194.832031 285.578125 196.277344 285.863281 C 197.722656 286.152344 199.152344 286.511719 200.5625 286.9375 C 201.972656 287.367188 203.359375 287.863281 204.71875 288.425781 C 206.082031 288.988281 207.410156 289.617188 208.710938 290.3125 C 210.011719 291.007812 211.273438 291.765625 212.5 292.582031 C 213.726562 293.402344 214.90625 294.28125 216.046875 295.214844 C 217.1875 296.148438 218.277344 297.136719 219.320312 298.179688 C 220.359375 299.222656 221.347656 300.3125 222.285156 301.453125 C 223.21875 302.589844 224.097656 303.773438 224.914062 305 C 225.734375 306.222656 226.492188 307.488281 227.183594 308.785156 C 227.878906 310.085938 228.507812 311.417969 229.074219 312.777344 C 229.636719 314.140625 230.132812 315.527344 230.5625 316.9375 C 230.988281 318.347656 231.347656 319.773438 231.632812 321.21875 C 231.921875 322.664062 232.136719 324.121094 232.28125 325.589844 C 232.425781 327.054688 232.5 328.527344 232.5 330 Z M 232.5 330 " fill-opacity="1" fill-rule="nonzero"/></g><path fill="#ffffff" d="M 375 45 C 375 46.472656 374.925781 47.941406 374.78125 49.410156 C 374.636719 50.875 374.421875 52.332031 374.132812 53.777344 C 373.847656 55.222656 373.488281 56.652344 373.0625 58.0625 C 372.632812 59.472656 372.136719 60.859375 371.574219 62.21875 C 371.007812 63.582031 370.378906 64.910156 369.683594 66.210938 C 368.992188 67.511719 368.234375 68.773438 367.414062 70 C 366.597656 71.226562 365.71875 72.40625 364.785156 73.546875 C 363.847656 74.6875 362.859375 75.777344 361.820312 76.820312 C 360.777344 77.859375 359.6875 78.847656 358.546875 79.785156 C 357.40625 80.71875 356.226562 81.597656 355 82.414062 C 353.773438 83.234375 352.511719 83.992188 351.210938 84.683594 C 349.910156 85.378906 348.582031 86.007812 347.21875 86.574219 C 345.859375 87.136719 344.472656 87.632812 343.0625 88.0625 C 341.652344 88.488281 340.222656 88.847656 338.777344 89.132812 C 337.332031 89.421875 335.875 89.636719 334.410156 89.78125 C 332.941406 89.925781 331.472656 90 330 90 C 328.527344 90 327.054688 89.925781 325.589844 89.78125 C 324.121094 89.636719 322.664062 89.421875 321.21875 89.132812 C 319.773438 88.847656 318.347656 88.488281 316.9375 88.0625 C 315.527344 87.632812 314.140625 87.136719 312.777344 86.574219 C 311.417969 86.007812 310.085938 85.378906 308.785156 84.683594 C 307.488281 83.992188 306.222656 83.234375 305 82.414062 C 303.773438 81.597656 302.589844 80.71875 301.453125 79.785156 C 300.3125 78.847656 299.222656 77.859375 298.179688 76.820312 C 297.136719 75.777344 296.148438 74.6875 295.214844 73.546875 C 294.28125 72.40625 293.402344 71.226562 292.582031 70 C 291.765625 68.773438 291.007812 67.511719 290.3125 66.210938 C 289.617188 64.910156 288.988281 63.582031 288.425781 62.21875 C 287.863281 60.859375 287.367188 59.472656 286.9375 58.0625 C 286.511719 56.652344 286.152344 55.222656 285.863281 53.777344 C 285.578125 52.332031 285.359375 50.875 285.214844 49.410156 C 285.070312 47.941406 285 46.472656 285 45 C 285 43.527344 285.070312 42.054688 285.214844 40.589844 C 285.359375 39.121094 285.578125 37.664062 285.863281 36.21875 C 286.152344 34.773438 286.511719 33.347656 286.9375 31.9375 C 287.367188 30.527344 287.863281 29.140625 288.425781 27.777344 C 288.988281 26.417969 289.617188 25.085938 290.3125 23.785156 C 291.007812 22.488281 291.765625 21.222656 292.582031 20 C 293.402344 18.773438 294.28125 17.589844 295.214844 16.453125 C 296.148438 15.3125 297.136719 14.222656 298.179688 13.179688 C 299.222656 12.136719 300.3125 11.148438 301.453125 10.214844 C 302.589844 9.28125 303.773438 8.402344 305 7.582031 C 306.222656 6.765625 307.488281 6.007812 308.785156 5.3125 C 310.085938 4.617188 311.417969 3.988281 312.777344 3.425781 C 314.140625 2.863281 315.527344 2.367188 316.9375 1.9375 C 318.347656 1.511719 319.773438 1.152344 321.21875 0.863281 C 322.664062 0.578125 324.121094 0.359375 325.589844 0.214844 C 327.054688 0.0703125 328.527344 0 330 0 C 331.472656 0 332.941406 0.0703125 334.410156 0.214844 C 335.875 0.359375 337.332031 0.578125 338.777344 0.863281 C 340.222656 1.152344 341.652344 1.511719 343.0625 1.9375 C 344.472656 2.367188 345.859375 2.863281 347.21875 3.425781 C 348.582031 3.988281 349.910156 4.617188 351.210938 5.3125 C 352.511719 6.007812 353.773438 6.765625 355 7.582031 C 356.226562 8.402344 357.40625 9.28125 358.546875 10.214844 C 359.6875 11.148438 360.777344 12.136719 361.820312 13.179688 C 362.859375 14.222656 363.847656 15.3125 364.785156 16.453125 C 365.71875 17.589844 366.597656 18.773438 367.414062 20 C 368.234375 21.222656 368.992188 22.488281 369.683594 23.785156 C 370.378906 25.085938 371.007812 26.417969 371.574219 27.777344 C 372.136719 29.140625 372.632812 30.527344 373.0625 31.9375 C 373.488281 33.347656 373.847656 34.773438 374.132812 36.21875 C 374.421875 37.664062 374.636719 39.121094 374.78125 40.589844 C 374.925781 42.054688 375 43.527344 375 45 Z M 375 45 " fill-opacity="1" fill-rule="nonzero"/><g clip-path="url(#bf1a0c9550)"><path fill="#ffffff" d="M 375 187.5 C 375 188.972656 374.925781 190.441406 374.78125 191.910156 C 374.636719 193.375 374.421875 194.832031 374.132812 196.277344 C 373.847656 197.722656 373.488281 199.152344 373.0625 200.5625 C 372.632812 201.972656 372.136719 203.359375 371.574219 204.71875 C 371.007812 206.082031 370.378906 207.410156 369.683594 208.710938 C 368.992188 210.011719 368.234375 211.273438 367.414062 212.5 C 366.597656 213.726562 365.71875 214.90625 364.785156 216.046875 C 363.847656 217.1875 362.859375 218.277344 361.820312 219.320312 C 360.777344 220.359375 359.6875 221.347656 358.546875 222.285156 C 357.40625 223.21875 356.226562 224.097656 355 224.914062 C 353.773438 225.734375 352.511719 226.492188 351.210938 227.183594 C 349.910156 227.878906 348.582031 228.507812 347.21875 229.074219 C 345.859375 229.636719 344.472656 230.132812 343.0625 230.5625 C 341.652344 230.988281 340.222656 231.347656 338.777344 231.632812 C 337.332031 231.921875 335.875 232.136719 334.410156 232.28125 C 332.941406 232.425781 331.472656 232.5 330 232.5 C 328.527344 232.5 327.054688 232.425781 325.589844 232.28125 C 324.121094 232.136719 322.664062 231.921875 321.21875 231.632812 C 319.773438 231.347656 318.347656 230.988281 316.9375 230.5625 C 315.527344 230.132812 314.140625 229.636719 312.777344 229.074219 C 311.417969 228.507812 310.085938 227.878906 308.785156 227.183594 C 307.488281 226.492188 306.222656 225.734375 305 224.914062 C 303.773438 224.097656 302.589844 223.21875 301.453125 222.285156 C 300.3125 221.347656 299.222656 220.359375 298.179688 219.320312 C 297.136719 218.277344 296.148438 217.1875 295.214844 216.046875 C 294.28125 214.90625 293.402344 213.726562 292.582031 212.5 C 291.765625 211.273438 291.007812 210.011719 290.3125 208.710938 C 289.617188 207.410156 288.988281 206.082031 288.425781 204.71875 C 287.863281 203.359375 287.367188 201.972656 286.9375 200.5625 C 286.511719 199.152344 286.152344 197.722656 285.863281 196.277344 C 285.578125 194.832031 285.359375 193.375 285.214844 191.910156 C 285.070312 190.441406 285 188.972656 285 187.5 C 285 186.027344 285.070312 184.554688 285.214844 183.089844 C 285.359375 181.621094 285.578125 180.164062 285.863281 178.71875 C 286.152344 177.273438 286.511719 175.847656 286.9375 174.4375 C 287.367188 173.027344 287.863281 171.640625 288.425781 170.277344 C 288.988281 168.917969 289.617188 167.585938 290.3125 166.285156 C 291.007812 164.988281 291.765625 163.722656 292.582031 162.5 C 293.402344 161.273438 294.28125 160.089844 295.214844 158.953125 C 296.148438 157.8125 297.136719 156.722656 298.179688 155.679688 C 299.222656 154.636719 300.3125 153.648438 301.453125 152.714844 C 302.589844 151.78125 303.773438 150.902344 305 150.082031 C 306.222656 149.265625 307.488281 148.507812 308.785156 147.8125 C 310.085938 147.117188 311.417969 146.488281 312.777344 145.925781 C 314.140625 145.363281 315.527344 144.867188 316.9375 144.4375 C 318.347656 144.011719 319.773438 143.652344 321.21875 143.363281 C 322.664062 143.078125 324.121094 142.859375 325.589844 142.714844 C 327.054688 142.570312 328.527344 142.5 330 142.5 C 331.472656 142.5 332.941406 142.570312 334.410156 142.714844 C 335.875 142.859375 337.332031 143.078125 338.777344 143.363281 C 340.222656 143.652344 341.652344 144.011719 343.0625 144.4375 C 344.472656 144.867188 345.859375 145.363281 347.21875 145.925781 C 348.582031 146.488281 349.910156 147.117188 351.210938 147.8125 C 352.511719 148.507812 353.773438 149.265625 355 150.082031 C 356.226562 150.902344 357.40625 151.78125 358.546875 152.714844 C 359.6875 153.648438 360.777344 154.636719 361.820312 155.679688 C 362.859375 156.722656 363.847656 157.8125 364.785156 158.953125 C 365.71875 160.089844 366.597656 161.273438 367.414062 162.5 C 368.234375 163.722656 368.992188 164.988281 369.683594 166.285156 C 370.378906 167.585938 371.007812 168.917969 371.574219 170.277344 C 372.136719 171.640625 372.632812 173.027344 373.0625 174.4375 C 373.488281 175.847656 373.847656 177.273438 374.132812 178.71875 C 374.421875 180.164062 374.636719 181.621094 374.78125 183.089844 C 374.925781 184.554688 375 186.027344 375 187.5 Z M 375 187.5 " fill-opacity="1" fill-rule="nonzero"/></g><path fill="#ffffff" d="M 375 330 C 375 331.472656 374.925781 332.941406 374.78125 334.410156 C 374.636719 335.875 374.421875 337.332031 374.132812 338.777344 C 373.847656 340.222656 373.488281 341.652344 373.0625 343.0625 C 372.632812 344.472656 372.136719 345.859375 371.574219 347.21875 C 371.007812 348.582031 370.378906 349.910156 369.683594 351.210938 C 368.992188 352.511719 368.234375 353.773438 367.414062 355 C 366.597656 356.226562 365.71875 357.40625 364.785156 358.546875 C 363.847656 359.6875 362.859375 360.777344 361.820312 361.820312 C 360.777344 362.859375 359.6875 363.847656 358.546875 364.785156 C 357.40625 365.71875 356.226562 366.597656 355 367.414062 C 353.773438 368.234375 352.511719 368.992188 351.210938 369.683594 C 349.910156 370.378906 348.582031 371.007812 347.21875 371.574219 C 345.859375 372.136719 344.472656 372.632812 343.0625 373.0625 C 341.652344 373.488281 340.222656 373.847656 338.777344 374.132812 C 337.332031 374.421875 335.875 374.636719 334.410156 374.78125 C 332.941406 374.925781 331.472656 375 330 375 C 328.527344 375 327.054688 374.925781 325.589844 374.78125 C 324.121094 374.636719 322.664062 374.421875 321.21875 374.132812 C 319.773438 373.847656 318.347656 373.488281 316.9375 373.0625 C 315.527344 372.632812 314.140625 372.136719 312.777344 371.574219 C 311.417969 371.007812 310.085938 370.378906 308.785156 369.683594 C 307.488281 368.992188 306.222656 368.234375 305 367.414062 C 303.773438 366.597656 302.589844 365.71875 301.453125 364.785156 C 300.3125 363.847656 299.222656 362.859375 298.179688 361.820312 C 297.136719 360.777344 296.148438 359.6875 295.214844 358.546875 C 294.28125 357.40625 293.402344 356.226562 292.582031 355 C 291.765625 353.773438 291.007812 352.511719 290.3125 351.210938 C 289.617188 349.910156 288.988281 348.582031 288.425781 347.21875 C 287.863281 345.859375 287.367188 344.472656 286.9375 343.0625 C 286.511719 341.652344 286.152344 340.222656 285.863281 338.777344 C 285.578125 337.332031 285.359375 335.875 285.214844 334.410156 C 285.070312 332.941406 285 331.472656 285 330 C 285 328.527344 285.070312 327.054688 285.214844 325.589844 C 285.359375 324.121094 285.578125 322.664062 285.863281 321.21875 C 286.152344 319.773438 286.511719 318.347656 286.9375 316.9375 C 287.367188 315.527344 287.863281 314.140625 288.425781 312.777344 C 288.988281 311.417969 289.617188 310.085938 290.3125 308.785156 C 291.007812 307.488281 291.765625 306.222656 292.582031 305 C 293.402344 303.773438 294.28125 302.589844 295.214844 301.453125 C 296.148438 300.3125 297.136719 299.222656 298.179688 298.179688 C 299.222656 297.136719 300.3125 296.148438 301.453125 295.214844 C 302.589844 294.28125 303.773438 293.402344 305 292.582031 C 306.222656 291.765625 307.488281 291.007812 308.785156 290.3125 C 310.085938 289.617188 311.417969 288.988281 312.777344 288.425781 C 314.140625 287.863281 315.527344 287.367188 316.9375 286.9375 C 318.347656 286.511719 319.773438 286.152344 321.21875 285.863281 C 322.664062 285.578125 324.121094 285.359375 325.589844 285.214844 C 327.054688 285.070312 328.527344 285 330 285 C 331.472656 285 332.941406 285.070312 334.410156 285.214844 C 335.875 285.359375 337.332031 285.578125 338.777344 285.863281 C 340.222656 286.152344 341.652344 286.511719 343.0625 286.9375 C 344.472656 287.367188 345.859375 287.863281 347.21875 288.425781 C 348.582031 288.988281 349.910156 289.617188 351.210938 290.3125 C 352.511719 291.007812 353.773438 291.765625 355 292.582031 C 356.226562 293.402344 357.40625 294.28125 358.546875 295.214844 C 359.6875 296.148438 360.777344 297.136719 361.820312 298.179688 C 362.859375 299.222656 363.847656 300.3125 364.785156 301.453125 C 365.71875 302.589844 366.597656 303.773438 367.414062 305 C 368.234375 306.222656 368.992188 307.488281 369.683594 308.785156 C 370.378906 310.085938 371.007812 311.417969 371.574219 312.777344 C 372.136719 314.140625 372.632812 315.527344 373.0625 316.9375 C 373.488281 318.347656 373.847656 319.773438 374.132812 321.21875 C 374.421875 322.664062 374.636719 324.121094 374.78125 325.589844 C 374.925781 327.054688 375 328.527344 375 330 Z M 375 330 " fill-opacity="1" fill-rule="nonzero"/></svg>